name analog
datacolumns 19
datarows 69
range 0.166 0.2
endheader
time	ground_force_vx	ground_force_vy	ground_force_vz	ground_force_px	ground_force_py	ground_force_pz	l_ground_force_vx	l_ground_force_vy	l_ground_force_vz	l_ground_force_px	l_ground_force_py	l_ground_force_pz	ground_torque_x	ground_torque_y	ground_torque_z	l_ground_torque_x	l_ground_torque_y	l_ground_torque_z
0.166	-0.0	-0.0	-0.0	-0.0	-0.0	-0.0	-1.026287078857422	0.4997634887695312	-715.1853637695312	-0.0	-0.0	-0.0	-0.0	-0.0	-0.0	220209.3125	-1919.0819091796875	-2110.77880859375
0.1665	-0.0	-0.0	-0.0	-0.0	-0.0	-0.0	-0.2946933507919311	-0.2568405866622925	-716.84033203125	-0.0	-0.0	-0.0	-0.0	-0.0	-0.0	220499.234375	-1931.0936279296875	-2308.6123046875
0.167	-0.0	-0.0	-0.0	-0.0	-0.0	-0.0	-0.8375651240348816	-1.0331828594207764	-718.2477416992188	-0.0	-0.0	-0.0	-0.0	-0.0	-0.0	220190.921875	-2213.424560546875	-2089.40380859375
0.1675	-0.0	-0.0	-0.0	-0.0	-0.0	-0.0	-0.1795819997787475	-1.5119593143463137	-718.961181640625	-0.0	-0.0	-0.0	-0.0	-0.0	-0.0	220402.171875	-2474.150390625	-1958.3531494140625
0.168	-0.0	-0.0	-0.0	-0.0	-0.0	-0.0	0.4182019233703613	-1.867539882659912	-721.5454711914062	-0.0	-0.0	-0.0	-0.0	-0.0	-0.0	220565.078125	-2650.133056640625	-1846.3935546875
0.1685	-0.0	-0.0	-0.0	-0.0	-0.0	-0.0	1.1575791835784912	-2.4686872959136963	-722.4117431640625	-0.0	-0.0	-0.0	-0.0	-0.0	-0.0	220757.9375	-2611.47314453125	-1653.7354736328125
0.169	-0.0	-0.0	-0.0	-0.0	-0.0	-0.0	1.3992319107055664	-2.928861618041992	-723.7262573242188	-0.0	-0.0	-0.0	-0.0	-0.0	-0.0	221035.359375	-3108.46044921875	-1484.05517578125
0.1695	-0.0	-0.0	-0.0	-0.0	-0.0	-0.0	2.0491528511047363	-3.274540424346924	-724.3413696289062	-0.0	-0.0	-0.0	-0.0	-0.0	-0.0	220767.703125	-3565.3662109375	-1347.6268310546875
0.17	-0.0	-0.0	-0.0	-0.0	-0.0	-0.0	2.7621092796325684	-3.9713828563690186	-724.39453125	-0.0	-0.0	-0.0	-0.0	-0.0	-0.0	220657.765625	-3927.156005859375	-1305.7615966796875
0.1705	-0.0	-0.0	-0.0	-0.0	-0.0	-0.0	2.9183480739593506	-5.034336090087891	-725.1340942382812	-0.0	-0.0	-0.0	-0.0	-0.0	-0.0	220258.8125	-4127.73291015625	-1216.95166015625
0.171	-0.0	-0.0	-0.0	-0.0	-0.0	-0.0	3.374763965606689	-4.99710750579834	-727.080810546875	-0.0	-0.0	-0.0	-0.0	-0.0	-0.0	220589.625	-4380.54833984375	-1107.282958984375
0.1715	-0.0	-0.0	-0.0	-0.0	-0.0	-0.0	3.8520450592041016	-5.310832977294922	-727.72412109375	-0.0	-0.0	-0.0	-0.0	-0.0	-0.0	220264.328125	-4608.02587890625	-1022.0408935546876
0.17200000000000001	-0.0	-0.0	-0.0	-0.0	-0.0	-0.0	4.277052879333496	-5.087970733642578	-725.1428833007812	-0.0	-0.0	-0.0	-0.0	-0.0	-0.0	219933.0625	-4990.623046875	-796.2437133789062
0.17250000000000001	-0.0	-0.0	-0.0	-0.0	-0.0	-0.0	4.272439479827881	-5.475944519042969	-724.9326782226562	-0.0	-0.0	-0.0	-0.0	-0.0	-0.0	219720.578125	-5176.6748046875	-807.26318359375
0.17300000000000001	-0.0	-0.0	-0.0	-0.0	-0.0	-0.0	4.367790699005127	-5.610847473144531	-725.0816650390625	-0.0	-0.0	-0.0	-0.0	-0.0	-0.0	219020.734375	-5399.6982421875	-867.6055908203125
0.17350000000000002	-0.0	-0.0	-0.0	-0.0	-0.0	-0.0	4.171901702880859	-5.750654220581055	-723.8294677734375	-0.0	-0.0	-0.0	-0.0	-0.0	-0.0	218722.390625	-5598.37646484375	-963.4197387695312
0.17400000000000002	-0.0	-0.0	-0.0	-0.0	-0.0	-0.0	4.145777702331543	-6.13709831237793	-723.3507690429688	-0.0	-0.0	-0.0	-0.0	-0.0	-0.0	218152.03125	-5486.595703125	-1045.5655517578125
0.17450000000000002	-0.0	-0.0	-0.0	-0.0	-0.0	-0.0	3.71075177192688	-6.344126224517822	-721.775634765625	-0.0	-0.0	-0.0	-0.0	-0.0	-0.0	217532.421875	-5503.37939453125	-1243.1787109375
0.17500000000000002	-0.0	-0.0	-0.0	-0.0	-0.0	-0.0	3.4521355628967285	-6.741362571716309	-719.8306884765625	-0.0	-0.0	-0.0	-0.0	-0.0	-0.0	217085.234375	-5575.19287109375	-1257.45849609375
0.17550000000000002	-0.0	-0.0	-0.0	-0.0	-0.0	-0.0	3.806816577911377	-6.782970428466797	-719.581298828125	-0.0	-0.0	-0.0	-0.0	-0.0	-0.0	216650.4375	-5632.66015625	-1127.953857421875
0.176	-0.0	-0.0	-0.0	-0.0	-0.0	-0.0	3.9816198348999023	-6.520199775695801	-720.6231689453125	-0.0	-0.0	-0.0	-0.0	-0.0	-0.0	216450.15625	-5858.7998046875	-1168.8109130859375
0.1765	-0.0	-0.0	-0.0	-0.0	-0.0	-0.0	4.5189971923828125	-6.868172645568848	-719.8472900390625	-0.0	-0.0	-0.0	-0.0	-0.0	-0.0	216099.828125	-5959.3330078125	-979.2003784179688
0.177	-0.0	-0.0	-0.0	-0.0	-0.0	-0.0	5.206883907318115	-6.92665958404541	-717.9761962890625	-0.0	-0.0	-0.0	-0.0	-0.0	-0.0	215880.453125	-6089.49755859375	-823.9060668945312
0.1775	-0.0	-0.0	-0.0	-0.0	-0.0	-0.0	5.283568382263184	-6.907796859741211	-720.3310546875	-0.0	-0.0	-0.0	-0.0	-0.0	-0.0	216061.1875	-6291.35107421875	-818.2439575195312
0.178	-0.0	-0.0	-0.0	-0.0	-0.0	-0.0	5.489192962646484	-7.039552688598633	-721.359619140625	-0.0	-0.0	-0.0	-0.0	-0.0	-0.0	215746.75	-6496.87255859375	-851.62890625
0.1785	-0.0	-0.0	-0.0	-0.0	-0.0	-0.0	5.494555950164795	-7.060246467590332	-721.6530151367188	-0.0	-0.0	-0.0	-0.0	-0.0	-0.0	215921.5	-6380.8115234375	-743.1732177734375
0.179	-0.0	-0.0	-0.0	-0.0	-0.0	-0.0	5.613629341125488	-7.62747049331665	-722.5534057617188	-0.0	-0.0	-0.0	-0.0	-0.0	-0.0	215808.015625	-6459.51025390625	-657.4966430664062
0.1795	-0.0	-0.0	-0.0	-0.0	-0.0	-0.0	5.436133861541748	-7.648189544677734	-723.4750366210938	-0.0	-0.0	-0.0	-0.0	-0.0	-0.0	215821.21875	-6241.86474609375	-767.4539794921875
0.18	-0.0	-0.0	-0.0	-0.0	-0.0	-0.0	4.689467906951904	-8.094989776611328	-723.9547119140625	-0.0	-0.0	-0.0	-0.0	-0.0	-0.0	215981.421875	-5992.84130859375	-1077.9091796875
0.1805	-0.0	-0.0	-0.0	-0.0	-0.0	-0.0	3.465453147888184	-8.285116195678711	-723.8815307617188	-0.0	-0.0	-0.0	-0.0	-0.0	-0.0	216188.875	-5670.66162109375	-1219.69921875
0.181	-0.0	-0.0	-0.0	-0.0	-0.0	-0.0	3.236470460891724	-7.6383771896362305	-724.2391967773438	-0.0	-0.0	-0.0	-0.0	-0.0	-0.0	215967.5	-5421.1220703125	-1496.693115234375
0.1815	-0.0	-0.0	-0.0	-0.0	-0.0	-0.0	3.2647736072540283	-7.692806243896484	-723.0927734375	-0.0	-0.0	-0.0	-0.0	-0.0	-0.0	215482.265625	-5313.4072265625	-1463.1361083984375
0.182	-0.0	-0.0	-0.0	-0.0	-0.0	-0.0	3.0397942066192627	-7.495602607727051	-721.1785888671875	-0.0	-0.0	-0.0	-0.0	-0.0	-0.0	215088.125	-5222.58203125	-1476.99658203125
0.1825	-0.0	-0.0	-0.0	-0.0	-0.0	-0.0	2.4659247398376465	-7.7782745361328125	-722.6023559570312	-0.0	-0.0	-0.0	-0.0	-0.0	-0.0	214905.59375	-5031.94873046875	-1774.052978515625
0.183	-0.0	-0.0	-0.0	-0.0	-0.0	-0.0	1.9118900299072263	-7.212125778198242	-723.75	-0.0	-0.0	-0.0	-0.0	-0.0	-0.0	215232.625	-4938.068359375	-1877.5947265625
0.1835	-0.0	-0.0	-0.0	-0.0	-0.0	-0.0	1.5584306716918943	-6.889025688171387	-725.1998291015625	-0.0	-0.0	-0.0	-0.0	-0.0	-0.0	215749.515625	-4821.68798828125	-1913.9793701171875
0.184	-0.0	-0.0	-0.0	-0.0	-0.0	-0.0	1.4576034545898438	-6.109131336212158	-727.7234497070312	-0.0	-0.0	-0.0	-0.0	-0.0	-0.0	215987.640625	-4912.5615234375	-1924.8775634765625
0.1845	-0.0	-0.0	-0.0	-0.0	-0.0	-0.0	1.5967941284179688	-6.088011264801025	-727.705322265625	-0.0	-0.0	-0.0	-0.0	-0.0	-0.0	216400.171875	-5311.400390625	-2011.333251953125
0.185	-0.0	-0.0	-0.0	-0.0	-0.0	-0.0	0.9995714426040648	-6.479152202606201	-730.73095703125	-0.0	-0.0	-0.0	-0.0	-0.0	-0.0	216744.6875	-5286.50439453125	-2036.5299072265625
0.1855	-0.0	-0.0	-0.0	-0.0	-0.0	-0.0	0.8047294020652771	-6.185654640197754	-731.9342041015625	-0.0	-0.0	-0.0	-0.0	-0.0	-0.0	216976.890625	-5497.509765625	-2124.073974609375
0.186	-0.0	-0.0	-0.0	-0.0	-0.0	-0.0	1.4508998394012451	-6.346651554107666	-732.1835327148438	-0.0	-0.0	-0.0	-0.0	-0.0	-0.0	216975.390625	-5758.81689453125	-2039.450927734375
0.1865	-0.0	-0.0	-0.0	-0.0	-0.0	-0.0	1.3500787019729614	-6.251507759094238	-730.4761352539062	-0.0	-0.0	-0.0	-0.0	-0.0	-0.0	217000.546875	-5981.21044921875	-1841.96240234375
0.187	-0.0	-0.0	-0.0	-0.0	-0.0	-0.0	1.9976805448532104	-6.289065361022949	-729.78857421875	-0.0	-0.0	-0.0	-0.0	-0.0	-0.0	216515.875	-6304.53564453125	-1729.7523193359375
0.1875	-0.0	-0.0	-0.0	-0.0	-0.0	-0.0	2.5182621479034424	-5.547915458679199	-728.7890625	-0.0	-0.0	-0.0	-0.0	-0.0	-0.0	216276.953125	-6486.19189453125	-1486.1107177734375
0.188	-0.0	-0.0	-0.0	-0.0	-0.0	-0.0	3.637759685516357	-5.000653266906738	-727.1019287109375	-0.0	-0.0	-0.0	-0.0	-0.0	-0.0	215758.265625	-6708.91552734375	-1221.5980224609375
0.1885	-0.0	-0.0	-0.0	-0.0	-0.0	-0.0	4.74353551864624	-4.361077785491943	-721.4263305664062	-0.0	-0.0	-0.0	-0.0	-0.0	-0.0	214451.734375	-7215.6396484375	-857.9912719726562
0.189	-0.0	-0.0	-0.0	-0.0	-0.0	-0.0	5.186190605163574	-4.59775447845459	-718.8092041015625	-0.0	-0.0	-0.0	-0.0	-0.0	-0.0	213430.59375	-7480.29443359375	-540.4649658203125
0.1895	-0.0	-0.0	-0.0	-0.0	-0.0	-0.0	5.295333862304688	-5.180410385131836	-717.0771484375	-0.0	-0.0	-0.0	-0.0	-0.0	-0.0	212686.109375	-7418.58544921875	-544.0671997070312
0.19	-0.0	-0.0	-0.0	-0.0	-0.0	-0.0	4.7697834968566895	-5.049833297729492	-715.2642822265625	-0.0	-0.0	-0.0	-0.0	-0.0	-0.0	212324.8125	-7311.568359375	-664.1094360351562
0.1905	-0.0	-0.0	-0.0	-0.0	-0.0	-0.0	4.1085052490234375	-5.278535842895508	-713.6658935546875	-0.0	-0.0	-0.0	-0.0	-0.0	-0.0	211816.109375	-7314.77490234375	-489.31683349609375
0.191	-0.0	-0.0	-0.0	-0.0	-0.0	-0.0	3.7615039348602295	-5.031388282775879	-713.280517578125	-0.0	-0.0	-0.0	-0.0	-0.0	-0.0	211579.59375	-7242.16943359375	-703.1077270507812
0.1915	-0.0	-0.0	-0.0	-0.0	-0.0	-0.0	3.429512023925781	-4.824068069458008	-710.3768920898438	-0.0	-0.0	-0.0	-0.0	-0.0	-0.0	211140.890625	-6930.55517578125	-834.7576293945312
0.192	-0.0	-0.0	-0.0	-0.0	-0.0	-0.0	2.954214096069336	-4.528979301452637	-711.2147216796875	-0.0	-0.0	-0.0	-0.0	-0.0	-0.0	210856.609375	-6652.3671875	-763.5225830078125
0.1925	-0.0	-0.0	-0.0	-0.0	-0.0	-0.0	3.1192221641540527	-3.688087940216065	-712.5054931640625	-0.0	-0.0	-0.0	-0.0	-0.0	-0.0	211574.796875	-6510.86669921875	-757.9915161132812
0.193	-0.0	-0.0	-0.0	-0.0	-0.0	-0.0	3.522641658782959	-2.9506139755249023	-714.3427734375	-0.0	-0.0	-0.0	-0.0	-0.0	-0.0	212226.21875	-6492.85302734375	-515.8372802734375
0.1935	-0.0	-0.0	-0.0	-0.0	-0.0	-0.0	3.488985300064087	-3.0067105293273926	-716.2701416015625	-0.0	-0.0	-0.0	-0.0	-0.0	-0.0	212821.734375	-6557.158203125	-542.1901245117188
0.194	-0.0	-0.0	-0.0	-0.0	-0.0	-0.0	3.406004905700684	-3.1391050815582275	-719.0050048828125	-0.0	-0.0	-0.0	-0.0	-0.0	-0.0	213822.796875	-6678.8408203125	-510.6788024902344
0.1945	-0.0	-0.0	-0.0	-0.0	-0.0	-0.0	3.637142181396485	-3.238303899765014	-720.0091552734375	-0.0	-0.0	-0.0	-0.0	-0.0	-0.0	214273.21875	-6480.32177734375	-613.7249145507812
0.195	-0.0	-0.0	-0.0	-0.0	-0.0	-0.0	3.248936653137207	-3.063610792160034	-722.6931762695312	-0.0	-0.0	-0.0	-0.0	-0.0	-0.0	215149.640625	-6670.78515625	-572.547607421875
0.1955	-0.0	-0.0	-0.0	-0.0	-0.0	-0.0	3.382356643676758	-2.348055839538574	-724.794189453125	-0.0	-0.0	-0.0	-0.0	-0.0	-0.0	215572.625	-7052.69677734375	-588.9495849609375
0.196	-0.0	-0.0	-0.0	-0.0	-0.0	-0.0	3.609195470809937	-1.9411466121673584	-724.49169921875	-0.0	-0.0	-0.0	-0.0	-0.0	-0.0	215989.828125	-7125.1826171875	-540.57568359375
0.1965	-0.0	-0.0	-0.0	-0.0	-0.0	-0.0	3.710547924041748	-1.2867305278778076	-725.1577758789062	-0.0	-0.0	-0.0	-0.0	-0.0	-0.0	216319.53125	-7372.62939453125	-566.4225463867188
0.197	-0.0	-0.0	-0.0	-0.0	-0.0	-0.0	4.321744441986084	-1.2816420793533323	-725.9166259765625	-0.0	-0.0	-0.0	-0.0	-0.0	-0.0	217010.0	-7805.50341796875	-320.01678466796875
0.1975	-0.0	-0.0	-0.0	-0.0	-0.0	-0.0	5.407487869262695	-1.119434118270874	-725.028564453125	-0.0	-0.0	-0.0	-0.0	-0.0	-0.0	217006.15625	-8308.451171875	15.815813064575195
0.198	-0.0	-0.0	-0.0	-0.0	-0.0	-0.0	5.810556411743164	-1.6943318843841553	-724.3328857421875	-0.0	-0.0	-0.0	-0.0	-0.0	-0.0	217038.765625	-8777.0498046875	197.1707763671875
0.1985	-0.0	-0.0	-0.0	-0.0	-0.0	-0.0	6.517123699188232	-1.41314697265625	-722.8684692382812	-0.0	-0.0	-0.0	-0.0	-0.0	-0.0	217050.71875	-8943.283203125	222.50762939453125
0.199	-0.0	-0.0	-0.0	-0.0	-0.0	-0.0	6.963428497314453	-1.5739550590515137	-722.4830932617188	-0.0	-0.0	-0.0	-0.0	-0.0	-0.0	216874.515625	-9353.708984375	549.9181518554688
0.1995	-0.0	-0.0	-0.0	-0.0	-0.0	-0.0	8.58083438873291	-1.2045104503631592	-720.2369384765625	-0.0	-0.0	-0.0	-0.0	-0.0	-0.0	216542.015625	-9697.232421875	987.3779296875
0.2	-0.0	-0.0	-0.0	-0.0	-0.0	-0.0	9.852937698364258	-0.5157780051231384	-715.1591796875	-0.0	-0.0	-0.0	-0.0	-0.0	-0.0	215582.109375	-9877.9912109375	1414.5277099609375
